# xmcd
#
# Track frame offsets:
#	150
#	12425
#	22270
#	33880
#	48555
#	59570
#	70208
#	79965
#	92450
#	102888
#	122823
#	135865
#
# Disc length: 1999 seconds
# Revision: 3
# Processed by: cddbd v1.5.2PL0 Copyright (c) Steve Scherf et al.
# Submitted via: dBpowerAMP V12.0
#
DISCID=9d07cd0c
DTITLE=Chuck Berry - Run Around
DYEAR=1996
DGENRE=Blues/Rock
TTITLE0=Things I Used To Do
TTITLE1=Worried Life Blues
TTITLE2=Run Around
TTITLE3=Childhood Sweetheart
TTITLE4=In-Go
TTITLE5=Drifting Blues
TTITLE6=Confessin' The Blues
TTITLE7=Sweet Sixteen
TTITLE8=Deep Feelin'
TTITLE9=Bio
TTITLE10=Lucky So And So
TTITLE11=Wee Wee Hours
EXTD=
EXTT0=
EXTT1=
EXTT2=
EXTT3=
EXTT4=
EXTT5=
EXTT6=
EXTT7=
EXTT8=
EXTT9=
EXTT10=
EXTT11=
PLAYORDER=
